<?xml version="1.0" standalone="no"?>
<!DOCTYPE svg PUBLIC "-//W3C//DTD SVG 20010904//EN"
 "http://www.w3.org/TR/2001/REC-SVG-20010904/DTD/svg10.dtd">
<svg version="1.0" xmlns="http://www.w3.org/2000/svg"
 width="1280.000000pt" height="960.000000pt" viewBox="0 0 1280.000000 960.000000"
 preserveAspectRatio="xMidYMid meet">
<metadata>
Created by potrace 1.16, written by Peter Selinger 2001-2019
</metadata>
<g transform="translate(0.000000,960.000000) scale(0.100000,-0.100000)"
fill="#000000" stroke="none">
<path d="M10920 8943 c-29 -20 -40 -33 -40 -50 0 -9 11 -6 33 7 17 11 35 20
39 20 3 0 -6 -26 -21 -57 -15 -32 -33 -74 -41 -93 -7 -19 -18 -41 -24 -48 -13
-18 9 -32 50 -32 33 0 94 36 125 73 10 12 26 46 36 75 16 49 16 54 0 87 -16
34 -18 35 -75 35 -38 0 -66 -6 -82 -17z m128 -19 c46 -32 12 -115 -70 -174
-37 -27 -68 -38 -68 -25 0 5 25 63 78 177 19 42 28 45 60 22z"/>
<path d="M10275 8880 c-31 -38 -61 -70 -65 -70 -4 0 -13 7 -20 15 -13 16 -40
21 -40 7 0 -4 9 -13 21 -20 20 -13 20 -14 2 -34 -10 -12 -37 -33 -60 -48 -23
-15 -40 -30 -36 -34 16 -16 51 -2 90 36 l42 41 17 -41 c9 -23 20 -42 24 -42 4
0 17 26 29 58 11 31 34 84 50 117 26 55 30 85 11 85 -4 0 -34 -31 -65 -70z"/>
<path d="M11267 8920 c-15 -25 -24 -30 -57 -30 -21 0 -42 -4 -45 -10 -4 -6 10
-10 34 -10 23 0 41 -1 41 -3 0 -2 -13 -31 -30 -65 -16 -34 -30 -71 -30 -82 0
-31 28 -36 56 -10 l24 23 0 -21 c0 -28 30 -29 61 -2 22 19 22 20 2 8 -12 -7
-25 -9 -28 -6 -14 14 53 108 77 108 14 0 9 -27 -10 -50 -21 -26 -18 -68 5 -77
8 -3 25 5 39 17 20 20 24 21 24 6 0 -27 29 -31 54 -7 23 21 24 21 28 3 4 -15
18 -22 59 -27 51 -7 55 -6 79 22 14 16 42 40 62 53 21 14 38 29 38 34 0 5 -10
0 -22 -11 -13 -11 -33 -26 -45 -32 -22 -11 -23 -10 -23 20 0 18 7 41 16 51 16
16 15 18 0 24 -30 11 -61 -29 -59 -76 1 -22 -1 -41 -5 -41 -76 -13 -77 -8 -22
101 40 79 50 120 30 120 -6 0 -33 -47 -60 -104 -49 -101 -74 -136 -87 -122 -4
3 3 27 15 51 45 93 18 100 -37 10 -52 -85 -84 -89 -41 -5 29 57 25 91 -8 58
-8 -8 -15 -8 -25 1 -24 19 -65 -7 -103 -66 -31 -49 -54 -67 -54 -43 0 6 13 39
29 75 l29 64 49 3 48 4 -42 8 c-35 7 -41 11 -34 25 9 17 4 41 -8 41 -4 0 -15
-13 -24 -30z"/>
<path d="M685 8889 c-2 -8 -9 -61 -14 -119 -6 -58 -19 -193 -30 -300 -28 -265
-55 -531 -96 -935 -19 -187 -46 -456 -61 -598 -14 -142 -24 -261 -20 -264 3
-3 28 -8 55 -11 47 -4 50 -3 57 22 8 32 23 25 17 -8 -5 -23 -2 -24 52 -28 33
-1 59 1 61 7 2 6 22 190 44 410 22 220 44 437 49 483 5 46 11 85 13 87 3 3 97
-9 209 -25 112 -17 233 -35 269 -40 79 -11 300 -44 470 -70 69 -10 190 -28
270 -40 80 -11 279 -41 442 -65 164 -25 303 -45 310 -45 8 0 10 -146 4 -597
-4 -328 -9 -599 -11 -601 -2 -3 -89 3 -192 12 -271 23 -732 65 -775 70 l-38 4
0 -43 c0 -42 0 -43 43 -51 l42 -8 -46 -4 -46 -3 -7 -46 c-8 -62 -8 -81 2 -66
6 10 36 9 137 -2 163 -18 461 -49 670 -70 235 -24 222 -20 229 -58 3 -17 6
-139 7 -270 1 -130 4 -235 7 -232 3 2 38 -62 77 -143 40 -81 185 -375 323
-654 l250 -507 -98 -268 c-54 -147 -122 -333 -151 -413 -29 -80 -55 -147 -58
-150 -4 -3 -7 -12 -9 -20 -2 -8 -53 -139 -114 -290 -61 -151 -113 -281 -116
-288 -3 -9 -14 -11 -31 -8 -24 6 -24 5 -6 -5 11 -7 21 -13 23 -14 3 -3 -170
-458 -295 -780 -19 -49 -39 -100 -43 -111 -7 -18 -1 -27 37 -55 25 -19 49 -33
54 -31 5 1 9 -5 9 -13 0 -8 4 -15 8 -15 4 0 25 -17 47 -38 21 -20 35 -31 31
-23 -6 8 45 157 139 406 120 318 151 392 164 388 13 -4 13 -3 2 5 -12 8 -3 37
47 164 33 84 104 263 157 398 143 364 274 695 310 785 17 44 35 80 39 80 4 0
42 -67 85 -150 345 -661 450 -868 454 -887 4 -20 4 -20 6 4 0 15 10 72 22 126
l21 99 -21 41 c-23 46 -25 52 -13 52 5 0 13 -9 18 -21 8 -16 21 -22 59 -25 28
-2 61 -5 75 -7 14 -2 21 -2 15 0 -9 3 -525 1013 -525 1027 0 3 356 6 790 6
l790 0 0 -585 c0 -539 -1 -585 -17 -585 -35 0 -5 -8 52 -13 56 -5 57 -5 18 4
l-43 10 0 585 0 584 350 0 350 0 0 -154 0 -155 -47 -4 -48 -3 53 -2 52 -2 0
215 0 215 -45 0 c-26 0 -45 5 -45 11 0 7 17 10 45 7 l45 -3 0 67 0 68 1590 0
c1570 0 1591 0 1580 19 -13 24 -13 31 0 31 5 0 12 -11 16 -25 5 -22 11 -25 53
-25 45 0 48 -2 69 -42 79 -152 -40 89 -446 905 -254 511 -462 935 -462 942 0
8 -5 17 -12 21 -7 4 -8 3 -4 -4 5 -9 -158 -12 -658 -12 l-666 0 0 375 0 375
303 3 302 2 -302 3 -303 2 0 380 0 381 293 -3 292 -3 -33 63 c-24 44 -39 62
-53 62 -11 0 -17 5 -14 10 4 6 11 8 16 5 14 -9 12 -4 -32 86 -22 46 -38 76
-35 67 5 -17 -27 -18 -574 -18 l-580 0 0 425 0 425 -22 -1 c-17 -1 -19 -2 -5
-6 16 -4 17 -33 17 -424 l0 -419 -630 0 -630 0 0 360 0 360 353 1 c200 0 361
5 372 10 17 8 17 9 -5 4 -14 -2 -635 -6 -1380 -7 -745 -2 -1219 -4 -1052 -5
l302 -3 0 -360 0 -360 -410 0 -410 0 6 28 c4 15 4 25 1 22 -3 -3 -12 -32 -20
-65 -15 -63 -75 -256 -81 -262 -2 -2 -257 33 -567 78 -310 44 -760 109 -999
143 -336 48 -436 66 -438 77 -1 8 9 122 22 254 56 546 68 676 64 680 -3 3 -26
8 -52 11 -54 8 -66 -1 -66 -49 0 -16 -4 -26 -9 -23 -5 3 -7 24 -4 46 l6 40
-41 0 c-22 0 -47 3 -56 6 -9 3 -18 0 -21 -7z m3775 -619 l0 -360 -345 0 -345
0 0 360 0 360 345 0 345 0 0 -360z m700 0 l0 -360 -345 0 -345 0 0 360 0 360
345 0 345 0 0 -360z m-1460 -1010 l0 -380 -315 0 -315 0 0 380 0 380 315 0
315 0 0 -380z m630 0 l0 -380 -310 0 -310 0 0 380 0 380 310 0 310 0 0 -380z
m640 0 l0 -380 -315 0 -315 0 0 380 0 380 315 0 315 0 0 -380z m640 0 l0 -380
-315 0 -315 0 0 380 0 380 315 0 315 0 0 -380z m1270 0 l0 -380 -630 0 -630 0
0 380 0 380 630 0 630 0 0 -380z m-3180 -770 l0 -380 -315 0 -315 0 0 380 0
380 315 0 315 0 0 -380z m630 0 l0 -380 -310 0 -310 0 0 380 0 380 310 0 310
0 0 -380z m640 0 l0 -380 -315 0 -315 0 0 380 0 380 315 0 315 0 0 -380z m640
0 l0 -380 -315 0 -315 0 0 380 0 380 315 0 315 0 0 -380z m1270 0 l0 -380
-630 0 -630 0 0 380 0 380 630 0 630 0 0 -380z m-2550 -1404 l0 -764 -32 -5
c-18 -4 -170 -7 -337 -8 l-303 -2 -125 244 c-177 347 -332 655 -399 794 l-57
120 -8 185 c-4 102 -5 188 -2 192 2 4 287 8 634 8 l629 0 0 -764z m640 -1 l0
-765 -315 0 -315 0 0 758 c0 418 3 762 7 765 3 4 145 7 315 7 l308 0 0 -765z
m637 -2 l3 -763 -315 0 -315 0 0 765 0 765 313 -2 312 -3 2 -762z m1273 2 l0
-765 -630 0 -630 0 0 765 0 765 630 0 630 0 0 -765z m1623 628 c30 -65 99
-208 152 -318 54 -110 119 -245 145 -300 26 -55 120 -248 209 -428 88 -181
161 -330 161 -333 0 -2 -456 -3 -1012 -2 l-1013 3 -2 735 c-1 404 0 741 2 748
3 9 143 12 653 12 l649 0 56 -117z"/>
<path d="M10521 8825 c-32 -28 -58 -92 -48 -119 9 -23 50 -20 73 5 l18 20 8
-20 c9 -27 36 -27 64 0 l22 21 7 -21 c7 -24 37 -28 55 -6 10 12 10 15 -4 15
-21 0 -21 2 10 62 18 36 22 54 15 61 -8 8 -14 8 -23 -1 -8 -8 -17 -8 -31 -1
-25 14 -60 -11 -100 -69 -29 -42 -63 -69 -75 -57 -12 12 23 90 42 93 13 3 16
0 11 -10 -6 -10 -5 -10 4 -2 15 14 11 46 -5 51 -6 2 -25 -8 -43 -22z"/>
<path d="M8792 8525 c-7 -66 -17 -151 -23 -188 -6 -38 -8 -71 -5 -74 3 -4 6 1
6 10 0 9 6 16 13 15 11 -3 28 -123 20 -140 -2 -5 -106 -9 -231 -9 -178 -1
-212 -3 -157 -10 39 -5 113 -14 165 -20 180 -22 174 -22 194 0 11 12 23 21 28
21 4 0 9 -89 9 -197 l2 -198 12 90 c7 50 14 114 14 143 1 38 5 52 15 52 8 0
18 -4 21 -10 3 -5 11 -10 16 -10 6 0 -1 10 -15 23 -19 16 -24 28 -20 45 5 18
14 22 50 24 64 2 68 2 74 10 3 3 66 11 140 18 74 7 137 14 139 16 2 2 -98 4
-224 4 l-228 0 23 25 c14 15 35 25 51 25 22 0 40 17 105 98 110 138 110 139
-12 20 -60 -60 -112 -108 -116 -108 -4 0 -7 19 -8 43 0 23 -10 123 -23 222
l-23 180 -12 -120z"/>
<path d="M9860 4855 l0 -3655 573 2 c314 2 437 4 272 5 -224 3 -301 6 -307 16
-6 9 -8 9 -8 0 0 -10 -59 -13 -260 -13 l-260 0 0 1535 0 1535 258 3 257 2
-257 3 -258 2 0 145 0 145 562 0 c308 0 563 2 566 5 3 3 -250 5 -561 5 l-567
0 0 145 0 145 562 0 c308 0 563 2 566 5 3 3 -250 5 -561 5 l-567 0 0 445 0
445 562 0 c309 0 563 2 566 5 5 5 -275 6 -865 5 l-263 -1 0 146 0 145 562 0
c308 0 563 2 566 5 3 3 -250 5 -561 5 l-567 0 0 145 0 145 260 0 c201 0 260
-3 260 -12 0 -10 2 -10 8 -1 6 10 83 13 307 16 165 1 45 3 -267 5 l-568 2 0
145 0 145 188 3 187 2 -187 3 -188 2 0 144 c0 129 2 145 18 149 16 4 16 5 0 6
-16 1 -18 15 -18 146 l0 145 568 2 c312 2 432 4 267 5 -224 3 -301 6 -307 16
-6 9 -8 9 -8 0 0 -10 -59 -13 -260 -13 l-260 0 0 145 0 145 562 0 c308 0 563
2 566 5 5 5 -275 6 -865 5 l-263 -1 0 146 0 145 562 0 c308 0 563 2 566 5 3 3
-250 5 -561 5 l-567 0 0 145 0 145 258 3 257 2 -257 3 -258 2 0 155 0 155 568
3 567 2 -572 3 -573 2 0 -3655z"/>
<path d="M8050 8223 c0 -14 40 -166 45 -171 13 -13 33 12 45 55 7 26 16 52 20
56 4 4 14 -20 24 -53 23 -84 44 -79 68 15 21 85 22 105 4 105 -9 0 -19 -22
-28 -62 l-14 -63 -15 60 c-12 48 -19 61 -36 63 -18 3 -23 -5 -34 -53 -14 -62
-23 -61 -36 5 -6 30 -14 46 -26 48 -9 2 -17 0 -17 -5z"/>
<path d="M11104 7585 c0 -154 2 -218 3 -142 l4 137 564 -2 c372 -2 565 0 565
7 0 7 -193 9 -565 7 l-564 -2 -4 137 c-1 76 -3 12 -3 -142z"/>
<path d="M11104 4555 c0 -143 2 -196 3 -117 l4 142 564 -2 c311 -2 565 0 565
5 0 4 -254 7 -565 7 l-564 0 -4 113 c-1 61 -3 -5 -3 -148z"/>
<path d="M7590 2330 c0 -83 1 -90 20 -90 17 0 20 7 20 40 0 39 1 40 36 40 36
0 36 0 32 -40 -3 -36 -1 -40 19 -40 22 0 23 3 23 90 0 87 -1 90 -23 90 -20 0
-22 -4 -19 -38 4 -37 3 -38 -33 -40 l-37 -3 4 41 c3 36 1 40 -19 40 -22 0 -23
-3 -23 -90z"/>
<path d="M8595 2330 l0 -90 50 0 c62 0 92 19 101 65 13 73 -29 115 -115 115
l-36 0 0 -90z"/>
<path d="M11102 1383 l-2 -183 570 0 c536 0 570 1 569 18 0 10 -3 12 -6 5 -4
-10 -126 -13 -564 -13 l-559 0 -3 178 -2 177 -3 -182z"/>
<path d="M4725 1340 c3 -6 6 -39 6 -75 l0 -65 43 0 c23 0 47 5 54 12 17 17 15
55 -4 62 -15 6 -15 8 1 26 27 30 5 50 -57 50 -30 0 -47 -4 -43 -10z"/>
<path d="M4985 907 c-81 -46 -125 -136 -106 -220 10 -44 36 -87 53 -87 7 0 5
7 -4 18 -25 28 -41 91 -34 135 22 135 176 204 294 130 139 -86 109 -286 -50
-339 -53 -17 -100 -14 -136 12 -25 17 -30 44 -8 44 26 0 56 49 49 80 -6 34 38
120 63 120 16 0 37 47 30 67 -9 23 -43 14 -72 -19 -61 -73 -109 -226 -89 -289
14 -43 133 -53 205 -16 151 77 150 290 -1 367 -54 28 -142 27 -194 -3z"/>
<path d="M5443 904 c-101 -50 -71 -234 40 -234 21 0 47 5 58 10 15 8 19 7 19
-4 0 -23 -20 -70 -33 -78 -24 -15 -59 -8 -64 13 -4 16 -12 19 -37 17 -42 -4
-45 -31 -8 -68 57 -57 158 -34 193 43 25 56 26 193 2 244 -31 66 -103 90 -170
57z"/>
<path d="M6350 909 c-60 -24 -80 -100 -37 -143 l23 -23 -28 -32 c-69 -77 -9
-181 104 -181 61 0 106 36 115 92 6 43 -11 94 -38 108 -17 10 -16 12 7 35 27
27 31 63 9 104 -22 44 -96 63 -155 40z"/>
<path d="M7088 904 c-25 -13 -65 -71 -56 -80 3 -2 18 -6 34 -10 24 -4 31 -1
39 18 12 28 62 32 78 6 15 -23 -6 -68 -32 -68 -11 0 -21 -9 -25 -22 -9 -36 -8
-38 22 -38 15 0 33 -5 40 -12 17 -17 15 -83 -2 -97 -23 -19 -70 -9 -81 17 -7
16 -18 22 -42 22 -45 0 -44 -31 1 -76 30 -30 40 -34 85 -34 44 0 56 5 89 34
33 30 37 40 37 81 0 39 -5 51 -28 71 l-28 24 20 26 c69 88 -48 195 -151 138z"/>
<path d="M7396 795 c-61 -89 -86 -133 -86 -155 l0 -30 79 0 80 0 3 -37 c3 -35
6 -38 33 -38 27 0 30 3 33 38 3 32 7 37 28 37 20 0 24 5 24 29 0 23 -5 30 -22
33 -22 3 -23 7 -26 126 l-3 122 -29 0 c-25 0 -38 -14 -114 -125z"/>
<path d="M7694 911 c-27 -12 -64 -59 -64 -81 0 -10 7 -21 16 -24 32 -12 50 -5
61 24 20 53 93 32 93 -26 0 -18 -24 -50 -80 -109 -44 -46 -84 -95 -90 -110
-21 -55 -20 -55 115 -55 l125 0 0 35 0 35 -70 0 c-38 0 -70 4 -70 9 0 5 19 26
43 46 98 84 123 166 69 226 -23 26 -37 32 -78 35 -27 2 -59 0 -70 -5z"/>
<path d="M7995 911 c-27 -12 -61 -51 -67 -78 -4 -16 0 -23 16 -27 36 -10 45
-7 58 22 25 52 98 34 98 -25 0 -18 -21 -48 -73 -102 -87 -90 -107 -118 -107
-148 0 -23 2 -23 125 -23 l125 0 0 35 0 35 -70 0 c-38 0 -70 4 -70 8 0 4 25
32 56 62 89 87 107 154 56 211 -23 26 -37 32 -78 35 -27 2 -58 0 -69 -5z"/>
<path d="M8327 885 c-15 -19 -41 -42 -57 -50 -23 -12 -30 -22 -30 -45 0 -35 5
-36 48 -10 18 11 37 20 42 20 6 0 10 -54 10 -136 l0 -135 33 3 32 3 3 193 2
192 -27 0 c-20 0 -36 -10 -56 -35z"/>
<path d="M8696 730 c-25 -104 -46 -192 -46 -195 0 -3 11 -5 25 -5 20 0 26 7
34 38 22 85 81 333 81 342 0 5 -11 10 -24 10 -23 0 -26 -8 -70 -190z"/>
<path d="M9019 897 c-98 -66 -61 -227 53 -227 24 0 50 6 57 13 11 10 13 5 8
-26 -3 -22 -11 -45 -18 -53 -17 -20 -57 -17 -71 6 -13 20 -34 25 -61 14 -12
-4 -13 -11 -5 -35 14 -41 45 -59 101 -59 42 0 54 5 82 33 42 42 59 102 53 187
-6 78 -28 124 -71 150 -42 26 -86 25 -128 -3z"/>
<path d="M9330 907 c-33 -17 -70 -74 -70 -109 0 -41 24 -93 51 -112 27 -19 81
-21 111 -5 20 11 21 9 15 -26 -3 -20 -11 -43 -18 -51 -17 -20 -57 -17 -71 6
-13 21 -43 26 -66 11 -12 -7 -11 -14 2 -39 22 -43 50 -55 109 -49 41 3 56 11
78 35 50 55 61 190 24 278 -25 61 -106 91 -165 61z"/>
<path d="M9647 813 c-89 -130 -97 -144 -97 -177 0 -26 1 -26 79 -26 l80 0 3
-37 c3 -35 6 -38 36 -41 31 -3 32 -2 32 37 0 37 2 41 25 41 21 0 25 5 25 30 0
25 -4 30 -25 30 l-25 0 0 125 0 125 -29 0 c-26 0 -38 -12 -104 -107z"/>
<path d="M9978 858 c-105 -148 -128 -188 -128 -217 l0 -31 79 0 80 0 3 -37 c3
-35 6 -38 33 -38 27 0 30 3 33 38 3 32 7 37 28 37 20 0 24 5 24 30 0 25 -4 30
-25 30 l-25 0 0 125 0 125 -29 0 c-24 0 -36 -10 -73 -62z"/>
<path d="M10308 903 c-8 -10 -47 -65 -86 -123 -53 -77 -72 -114 -72 -138 l0
-32 80 0 80 0 0 -41 c0 -39 1 -40 33 -37 29 3 32 6 35 41 2 28 8 37 21 37 12
0 20 9 23 25 6 29 2 35 -24 35 -16 0 -18 10 -18 125 l0 125 -28 0 c-16 0 -36
-8 -44 -17z"/>
<path d="M10674 906 c-38 -17 -66 -73 -43 -87 23 -15 39 -10 63 18 18 21 28
25 49 19 21 -5 27 -12 27 -34 0 -32 -16 -52 -41 -52 -11 0 -18 -10 -21 -30 -4
-28 -3 -30 29 -30 26 0 36 -6 45 -25 13 -30 2 -72 -23 -88 -23 -14 -67 -1 -74
23 -4 14 -15 20 -35 20 -38 0 -44 -13 -25 -50 28 -55 113 -77 174 -46 67 35
83 123 31 174 -26 27 -28 31 -14 43 64 53 8 160 -83 159 -15 -1 -42 -7 -59
-14z"/>
<path d="M10973 900 c-78 -47 -86 -268 -13 -342 23 -23 37 -28 75 -28 38 0 52
5 75 28 52 52 65 212 24 298 -29 62 -101 81 -161 44z m91 -62 c18 -26 22 -180
6 -222 -14 -37 -57 -36 -71 2 -16 42 -8 220 11 232 23 15 38 12 54 -12z"/>
<path d="M11264 901 c-17 -11 -36 -33 -42 -49 -9 -27 -8 -31 11 -36 36 -9 45
-7 52 14 8 25 50 37 70 20 31 -25 12 -80 -27 -80 -10 0 -18 -6 -18 -14 0 -8
-3 -21 -6 -29 -4 -12 3 -16 27 -19 47 -4 68 -42 48 -84 -12 -24 -20 -29 -49
-29 -27 0 -37 5 -45 23 -8 18 -17 22 -40 20 -43 -4 -43 -32 -2 -73 30 -30 42
-35 82 -35 31 0 60 7 81 21 68 42 69 158 2 182 -9 3 -6 11 10 29 40 44 23 117
-35 147 -33 17 -84 13 -119 -8z"/>
<path d="M11574 910 c-79 -32 -95 -166 -27 -220 28 -22 83 -26 115 -9 20 11
21 9 15 -26 -3 -20 -11 -43 -18 -51 -17 -20 -57 -17 -71 6 -13 21 -43 26 -66
11 -12 -7 -11 -14 2 -39 22 -42 50 -55 108 -50 52 5 80 25 106 73 23 43 22
198 -2 243 -31 59 -103 86 -162 62z"/>
<path d="M11875 910 c-83 -34 -99 -164 -27 -220 27 -22 82 -26 113 -10 24 13
25 -5 5 -55 -12 -29 -20 -35 -45 -35 -21 0 -32 6 -36 20 -7 21 -39 27 -63 11
-12 -7 -11 -14 2 -39 20 -39 44 -52 93 -52 51 0 101 32 120 78 22 51 22 185 1
234 -28 62 -102 94 -163 68z"/>
<path d="M5720 858 c-6 -29 -14 -75 -17 -102 l-6 -49 36 7 c21 3 52 9 71 12
28 5 36 2 50 -17 20 -30 20 -68 0 -97 -21 -31 -75 -27 -89 6 -8 19 -15 21 -40
16 -39 -8 -40 -9 -26 -42 25 -60 131 -84 185 -41 105 83 52 253 -74 236 -37
-5 -37 -5 -31 27 l7 31 69 0 70 0 3 33 3 32 -100 0 -99 0 -12 -52z"/>
<path d="M5980 880 l0 -30 80 0 c44 0 80 -4 80 -10 0 -5 -11 -25 -25 -45 -35
-53 -66 -141 -72 -207 l-6 -58 31 0 c29 0 30 2 41 66 15 85 35 135 83 208 21
32 38 69 38 82 l0 24 -125 0 -125 0 0 -30z"/>
<path d="M6580 880 l0 -30 80 0 c44 0 80 -2 80 -4 0 -3 -18 -37 -40 -78 -39
-73 -76 -198 -66 -224 3 -8 18 -14 34 -14 27 0 28 2 40 73 14 80 54 174 95
223 15 18 27 44 27 58 l0 26 -125 0 -125 0 0 -30z"/>
</g>
</svg>
